<svg fill="none" height="15" viewBox="0 0 16 15" width="16" xmlns="http://www.w3.org/2000/svg">
	<path d="M5.21965 1.89187C7.32028 0.252182 11.4157 0.752214 13.7427 2.85223C18.5368 7.17107 12.6216 17.6382 6.78132 14.1896C8.50403 13.6473 10.1955 12.5429 11.3177 11.2959L11.3191 11.2944C12.6012 9.85695 13.1855 8.41478 13.2076 7.07567C13.2297 5.73529 12.6873 4.55266 11.8186 3.64335C10.2751 2.02789 7.67848 1.24585 5.21965 1.89187Z" fill="#2E5AAC" />
	<path d="M6.28346 13.8608L6.28319 13.8609C6.22737 13.8211 6.17158 13.7812 6.11578 13.7403C6.02279 13.672 5.92982 13.6006 5.83669 13.5207C4.06353 11.9866 2.60796 9.8547 3.76374 4.72622C3.84075 4.38439 3.92939 4.02925 4.03032 3.66009L4.03041 3.65982C4.12338 3.3065 4.28143 3.00199 4.4619 2.71782C4.48767 2.67723 4.51392 2.63705 4.54049 2.5972C5.17007 2.33952 5.81957 2.19141 6.4646 2.14028C10.9798 1.78231 15.2755 6.17556 10.9799 10.9919C9.83232 12.2669 8.04721 13.3932 6.28346 13.8608Z" fill="#2E5AAC" />
	<path d="M1.58642 4.9562C2.24252 4.07046 2.99991 3.4126 3.80968 2.95329C3.72304 3.1344 3.64741 3.3296 3.59137 3.54197C2.77203 6.54 2.7341 8.68414 3.18024 10.3124C3.62966 11.9526 4.555 13.0129 5.53942 13.8646L5.541 13.866C5.59255 13.9102 5.64393 13.9519 5.6947 13.9917C4.62162 14.1813 3.57897 14.0913 2.73405 13.6059C0.332539 12.267 -0.262526 7.50647 1.58642 4.9562Z" fill="#2E5AAC" />
</svg>