<svg width="684" height="912" fill="none" xmlns="http://www.w3.org/2000/svg"><g clip-path="url(#illustration-spaces-01__a)"><rect width="684" height="912" rx="8" fill="#F1F2F5"/><g filter="url(#illustration-spaces-01__b)"><g clip-path="url(#illustration-spaces-01__c)"><rect x="148" y="83" width="1156" height="746" rx="16" fill="#F1F2F5"/><path fill="#fff" d="M428 83h1160v64H428z"/><g clip-path="url(#illustration-spaces-01__d)"><mask id="illustration-spaces-01__e" style="mask-type:alpha" maskUnits="userSpaceOnUse" x="460" y="107" width="16" height="17"><path fill-rule="evenodd" clip-rule="evenodd" d="M461.453 107.002h13.094c.8 0 1.453.668 1.45 1.49v13.023c0 .819-.65 1.487-1.453 1.487h-13.091c-.8 0-1.453-.665-1.453-1.487v-13.026c0-.819.653-1.487 1.453-1.487ZM468 121.144h6v-12.281h-6v12.281Z" fill="#6B6C7E"/></mask><g mask="url(#illustration-spaces-01__e)"><path fill="#A7A9BC" d="M460 107h16v16h-16z"/></g></g><rect x="500" y="109.5" width="108" height="11" rx="5.5" fill="#CDCED9"/><path stroke="#9393A4" stroke-width=".5" d="M428 146.75h1160"/><path fill="#fff" d="M148 83h280v1024H148z"/><rect x="164" y="189.5" width="75" height="11" rx="5.5" fill="#E7E7ED"/><mask id="illustration-spaces-01__f" style="mask-type:alpha" maskUnits="userSpaceOnUse" x="399" y="192" width="10" height="6"><path d="m404.672 197.559 4.05-4.11c.793-.843-.285-1.989-1.063-1.164L404 196.008l-3.7-3.745c-.722-.768-1.782.415-1.057 1.186l4.059 4.12c.49.532.787.62 1.37-.01Z" fill="#6B6C7E"/></mask><g mask="url(#illustration-spaces-01__f)"><path fill="#6B6C7E" d="M396 187h16v16h-16z"/></g><path fill="#fff" d="M148 215h280v40H148z"/><mask id="illustration-spaces-01__g" style="mask-type:alpha" maskUnits="userSpaceOnUse" x="168" y="227" width="17" height="16"><path d="M168.448 230.401 176 227l7.553 3.301c.597.3.597 1.101 0 1.301L176 235l-7.552-3.298c-.597-.3-.597-1.101 0-1.301Z" fill="#6B6C7E"/><path d="m183.621 234.4-1.896-.801-1.197.501 1.997.9-6.488 2.901-6.486-2.901 2.097-.9-1.297-.601-1.897.901c-.6.2-.6 1 0 1.3l7.583 3.302 7.584-3.399c.5-.203.5-1.003 0-1.203Z" fill="#6B6C7E"/><path d="m183.618 238.398-1.909-.8-1.206.5 2.11.9-6.628 2.902-6.525-2.902 2.11-.9-1.206-.5-1.91.8c-.602.2-.602 1.001 0 1.301l7.531 3.301 7.63-3.398c.506-.203.506-1.004.003-1.204Z" fill="#6B6C7E"/></mask><g mask="url(#illustration-spaces-01__g)"><path fill="#272833" d="M168 227h16v16h-16z"/></g><rect x="196" y="229.5" width="32" height="11" rx="5.5" fill="#E7E7ED"/><path fill="#fff" d="M148 255h280v40H148z"/><mask id="illustration-spaces-01__h" style="mask-type:alpha" maskUnits="userSpaceOnUse" x="168" y="267" width="16" height="16"><path fill-rule="evenodd" clip-rule="evenodd" d="M168 281v-12c0-1.103.896-2 2-2h12c1.104 0 2 .897 2 2v12c0 1.103-.896 2-2 2h-12c-1.104 0-2-.897-2-2Zm14 0v-12h-12v12h12Zm-2.5-4c.688 0 .656-1 0-1h-7c-.656 0-.656 1 0 1h7Zm-2 2h-5c-.688 0-.656-1 0-1h5c.625 0 .688 1 0 1Zm.5-5a2 2 0 1 0 0-4 2 2 0 0 0 0 4Zm-4-4-2 4h4l-2-4Z" fill="#6B6C7E"/></mask><g mask="url(#illustration-spaces-01__h)"><path fill="#272833" d="M168 267h16v16h-16z"/></g><rect x="196" y="269.5" width="72" height="11" rx="5.5" fill="#E7E7ED"/><path fill="#fff" d="M148 295h280v40H148z"/><mask id="illustration-spaces-01__i" style="mask-type:alpha" maskUnits="userSpaceOnUse" x="168" y="307" width="17" height="17"><path fill-rule="evenodd" clip-rule="evenodd" d="M172.898 313.001a.401.401 0 0 1-.273-.1.37.37 0 0 1-.131-.253c0-.05.006-.1.026-.15.015-.044.037-.1.071-.172l.766-1.747.078-.181a.847.847 0 0 1 .109-.197.519.519 0 0 1 .435-.2c.103 0 .19.019.262.056a.47.47 0 0 1 .175.141c.037.05.073.106.1.166l.091.209.784 1.734c.072.15.103.257.103.335a.335.335 0 0 1-.122.253.399.399 0 0 1-.281.106.399.399 0 0 1-.169-.031.375.375 0 0 1-.121-.091.561.561 0 0 1-.091-.144l-.031-.066-.038-.084-.115-.271h-1.076l-.115.278a1.181 1.181 0 0 1-.159.3c-.062.072-.156.109-.278.109Zm1.087-2.025.291.713h-.576l.285-.713Z" fill="#000"/><path d="M176 316.001h-4a1 1 0 1 1 0-2h4a1 1 0 1 1 0 2Z" fill="#000"/><path fill-rule="evenodd" clip-rule="evenodd" d="M180 310.001h2c1.104 0 2 .897 2 2v9c0 1.103-.896 2-2 2h-9c-1.103 0-2-.897-2-2v-2h-1c-1.103 0-2-.897-2-2v-8c0-1.103.897-2 2-2h8c1.104 0 2 .897 2 2v1Zm-10-1v8h8v-8h-8Zm12 12h-9v-2h5c1.104 0 2-.897 2-2v-5h2v9Z" fill="#000"/></mask><g mask="url(#illustration-spaces-01__i)"><path fill="#272833" d="M168 307h16v16h-16z"/></g><rect x="196" y="309.5" width="56" height="11" rx="5.5" fill="#E7E7ED"/><mask id="illustration-spaces-01__j" style="mask-type:alpha" maskUnits="userSpaceOnUse" x="167" y="347" width="17" height="17"><path d="M171.017 349.974c0-2.635 3.396-4.198 5.395-1.747-1.56.612-2.941 2.55-2.351 4.717a.14.14 0 0 0-.028.003.133.133 0 0 1-.028.003 2.981 2.981 0 0 1-2.988-2.976Zm9.994 2.001a2.983 2.983 0 0 1-2.988 2.976 2.983 2.983 0 0 1-2.989-2.976 2.982 2.982 0 0 1 2.989-2.976 2.982 2.982 0 0 1 2.988 2.976Z" fill="#000"/><path d="M183.999 360.4c0 3.47-11.947 3.47-11.947 0 0-6.134 11.947-6.071 11.947 0Z" fill="#000"/><path d="M174.407 353.844c-5.518-.753-9.065 5.624-3.886 6.712.051-2.929 2.286-4.711 5.02-5.368a4.055 4.055 0 0 1-1.134-1.344Z" fill="#000"/></mask><g mask="url(#illustration-spaces-01__j)"><path fill="#272833" d="M168 347h16v16h-16z"/></g><rect x="196" y="349.5" width="80" height="11" rx="5.5" fill="#E7E7ED"/><rect x="164" y="405.5" width="97" height="11" rx="5.5" fill="#E7E7ED"/><mask id="illustration-spaces-01__k" style="mask-type:alpha" maskUnits="userSpaceOnUse" x="399" y="408" width="10" height="6"><path d="m404.672 413.559 4.05-4.11c.793-.843-.285-1.989-1.063-1.164L404 412.008l-3.7-3.745c-.722-.768-1.782.415-1.057 1.186l4.059 4.12c.49.532.787.62 1.37-.01Z" fill="#6B6C7E"/></mask><g mask="url(#illustration-spaces-01__k)"><path fill="#6B6C7E" d="M396 403h16v16h-16z"/></g><path fill="#fff" d="M148 431h280v40H148z"/><mask id="illustration-spaces-01__l" style="mask-type:alpha" maskUnits="userSpaceOnUse" x="168" y="443" width="16" height="16"><path fill-rule="evenodd" clip-rule="evenodd" d="M169.778 443h12.444a1.78 1.78 0 0 1 1.778 1.778v12.444a1.78 1.78 0 0 1-1.778 1.778h-12.444a1.78 1.78 0 0 1-1.778-1.778v-12.444a1.78 1.78 0 0 1 1.778-1.778Zm.113 14.444H173V445h-3.109v12.444ZM175 457v-5h7v5h-7Zm0-7h7v-5h-7v5Z" fill="#6B6C7E"/></mask><g mask="url(#illustration-spaces-01__l)"><path fill="#272833" d="M168 443h16v16h-16z"/></g><rect x="196" y="445.5" width="96" height="11" rx="5.5" fill="#E7E7ED"/><path fill="#fff" d="M148 471h280v40H148z"/><mask id="illustration-spaces-01__m" style="mask-type:alpha" maskUnits="userSpaceOnUse" x="168" y="484" width="16" height="14"><path d="M170.994 484h-1.996a.998.998 0 0 0-.998 1v1h3.992v-1c0-.553-.446-1-.998-1ZM168 497c0 .553.446 1 .998 1h1.996a.998.998 0 0 0 .998-1v-1H168v1Zm3.992-10H168v8h3.992v-8Zm3.992-3h-1.996a.998.998 0 0 0-.998 1v1h3.991v-1c0-.553-.445-1-.997-1Zm-2.994 13c0 .553.446 1 .998 1h1.996a.997.997 0 0 0 .997-1v-1h-3.991v1Zm3.991-10h-3.991v8h3.991v-8Zm2.754-2.9-.967.253a1 1 0 0 0-.714 1.219l.253.969 2.897-.757-.253-.968a.995.995 0 0 0-1.216-.716Zm1.721 2.651-2.897.756 2.01 7.742 2.897-.755-2.01-7.743Zm-.386 10.433a.996.996 0 0 0 1.216.716l.967-.253a1 1 0 0 0 .714-1.219l-.253-.969-2.897.757.253.968Z" fill="#6B6C7E"/></mask><g mask="url(#illustration-spaces-01__m)"><path fill="#272833" d="M168 483h16v16h-16z"/></g><rect x="196" y="485.5" width="72" height="11" rx="5.5" fill="#E7E7ED"/><path fill="#fff" d="M148 511h280v40H148z"/><mask id="illustration-spaces-01__n" style="mask-type:alpha" maskUnits="userSpaceOnUse" x="168" y="523" width="17" height="16"><path fill-rule="evenodd" clip-rule="evenodd" d="M173.895 530.44a1.001 1.001 0 0 1-1.79-.894l3-5.994a1.002 1.002 0 0 1 1.79 0l3 5.994a1 1 0 0 1-1.79.894l-.223-.447h-3.764l-.223.447Zm2.987-2.445-.882-1.762-.882 1.762h1.764ZM174 535a1 1 0 0 0-1-1v-2a1 1 0 0 0-1-1c-1.333 0-2.667-.017-4 0v8h5a1 1 0 0 0 1-1v-3Zm-3-1v-1h-1v1h1Zm-1 3v-1h2v1h-2Zm12.327-.002c.054.004.121.009.634-.011a1 1 0 1 1 .078 1.997c-.301.012-.481.016-.605.016-.122 0-.19-.004-.263-.01-.039-.003-.069-.006-.171-.006-2.206 0-4-1.781-4-3.984 0-2.203 1.794-4.008 4-4.008.596 0 1.095.058 1.116.06a.999.999 0 1 1-.232 1.985 8.433 8.433 0 0 0-.884-.047c-1.103 0-2 .908-2 2.01a1.99 1.99 0 0 0 2 1.986c.167 0 .247.006.327.012Z" fill="#6B6C7E"/></mask><g mask="url(#illustration-spaces-01__n)"><path fill="#272833" d="M168 523h16v16h-16z"/></g><rect x="196" y="525.5" width="80" height="11" rx="5.5" fill="#E7E7ED"/><path fill="#fff" d="M148 551h280v40H148z"/><mask id="illustration-spaces-01__o" style="mask-type:alpha" maskUnits="userSpaceOnUse" x="168" y="563" width="16" height="16"><path fill-rule="evenodd" clip-rule="evenodd" d="M182 563h-12c-1.104 0-2 .897-2 2v12c0 1.103.896 2 2 2h12c1.104 0 2-.897 2-2v-12c0-1.103-.896-2-2-2Zm0 2v12h-12v-12h12Zm-3 4.5v1.55a2.5 2.5 0 1 1-2.949 2.95H173v-3h-2v-5h5v5h-2v2h2.051c.199-.978.97-1.75 1.949-1.95v-1.55h-1l1.5-3 1.5 3h-1Z" fill="#6B6C7E"/></mask><g mask="url(#illustration-spaces-01__o)"><path fill="#272833" d="M168 563h16v16h-16z"/></g><rect x="196" y="565.5" width="48" height="11" rx="5.5" fill="#E7E7ED"/><path d="M168.491 632.232c-2.16 0-3.554-1.134-3.698-2.741l-.007-.075h1.231l.006.075c.089.985 1.115 1.607 2.537 1.607 1.339 0 2.317-.691 2.317-1.696v-.006c0-.821-.567-1.381-1.921-1.682l-1.094-.239c-1.975-.438-2.83-1.347-2.83-2.776v-.007c.007-1.633 1.436-2.789 3.473-2.789 1.969 0 3.343 1.162 3.445 2.632l.007.096h-1.23l-.014-.089c-.137-.868-.957-1.511-2.242-1.504-1.231.007-2.181.588-2.181 1.62v.007c0 .786.54 1.319 1.88 1.613l1.094.246c2.057.458 2.871 1.286 2.871 2.707v.007c0 1.846-1.443 2.994-3.644 2.994Zm5.544 2.229v-9.83h1.19v1.176h.109c.451-.821 1.271-1.306 2.297-1.306 1.866 0 3.09 1.511 3.09 3.808v.013c0 2.311-1.217 3.808-3.09 3.808-1.012 0-1.894-.506-2.297-1.292h-.109v3.623h-1.19Zm3.322-3.384c1.347 0 2.147-1.039 2.147-2.755v-.013c0-1.716-.8-2.755-2.147-2.755-1.339 0-2.16 1.052-2.16 2.755v.013c0 1.702.821 2.755 2.16 2.755Zm7.247 1.053c-1.402 0-2.461-.848-2.461-2.188v-.013c0-1.313.97-2.072 2.686-2.174l2.112-.13v-.67c0-.909-.553-1.401-1.654-1.401-.882 0-1.463.328-1.654.902l-.007.021h-1.189l.006-.041c.192-1.156 1.313-1.935 2.885-1.935 1.798 0 2.803.923 2.803 2.454V632h-1.19v-1.087h-.109c-.465.786-1.237 1.217-2.228 1.217Zm-1.245-2.215c0 .745.636 1.183 1.491 1.183 1.21 0 2.091-.793 2.091-1.846v-.67l-1.968.123c-1.121.068-1.614.465-1.614 1.196v.014Zm9.96 2.215c-2.064 0-3.383-1.497-3.383-3.835v-.014c0-2.29 1.312-3.78 3.376-3.78 1.792 0 2.865 1.032 3.084 2.345l.006.041h-1.182l-.007-.021c-.185-.724-.841-1.312-1.901-1.312-1.326 0-2.16 1.066-2.16 2.727v.014c0 1.695.848 2.782 2.16 2.782.992 0 1.621-.437 1.894-1.258l.014-.041 1.176-.007-.014.076c-.301 1.333-1.292 2.283-3.063 2.283Zm7.827 0c-2.105 0-3.376-1.477-3.376-3.787v-.007c0-2.276 1.298-3.835 3.301-3.835s3.22 1.49 3.22 3.691v.465h-5.305c.035 1.525.875 2.413 2.188 2.413.998 0 1.613-.471 1.811-.916l.028-.061h1.189l-.014.054c-.252.999-1.305 1.983-3.042 1.983Zm-.082-6.569c-1.093 0-1.927.745-2.057 2.146h4.074c-.123-1.456-.93-2.146-2.017-2.146Zm7.602 6.569c-1.641 0-2.769-.793-2.905-2.01h1.217c.198.615.786 1.019 1.729 1.019.991 0 1.695-.472 1.695-1.142v-.014c0-.499-.376-.847-1.285-1.066l-1.141-.273c-1.381-.329-2.003-.93-2.003-1.99v-.007c0-1.223 1.175-2.146 2.741-2.146 1.545 0 2.618.772 2.782 1.976h-1.169c-.157-.581-.731-.985-1.62-.985-.875 0-1.518.451-1.518 1.101v.013c0 .499.37.814 1.238 1.026l1.135.273c1.387.335 2.057.937 2.057 1.99v.013c0 1.313-1.278 2.222-2.953 2.222Z" fill="#272833"/><mask id="illustration-spaces-01__p" style="mask-type:alpha" maskUnits="userSpaceOnUse" x="399" y="624" width="10" height="6"><path d="m404.672 629.559 4.05-4.11c.793-.843-.285-1.989-1.063-1.164L404 628.008l-3.7-3.745c-.722-.768-1.782.415-1.057 1.186l4.059 4.12c.49.532.787.62 1.37-.01Z" fill="#6B6C7E"/></mask><g mask="url(#illustration-spaces-01__p)"><path fill="#6B6C7E" d="M396 619h16v16h-16z"/></g><path fill="#F0F5FF" d="M148 647h280v40H148z"/><path fill="#0B5FFF" d="M148 647h6v40h-6z"/><rect x="164.5" y="655.5" width="23" height="23" rx="3.5" fill="#F6F0FF"/><rect x="164.5" y="655.5" width="23" height="23" rx="3.5" stroke="#5D00E6"/><path d="M197.217 672v-9.864h2.023l2.967 7.588h.116l2.96-7.588h2.024V672h-1.586v-7.014h-.123L202.863 672h-1.203l-2.734-7.014h-.116V672h-1.593Zm14.383.123c-1.422 0-2.454-.875-2.454-2.235v-.014c0-1.333 1.018-2.112 2.836-2.222l1.921-.116v-.642c0-.746-.485-1.156-1.401-1.156-.779 0-1.285.281-1.456.773l-.007.027h-1.606l.006-.061c.165-1.258 1.368-2.092 3.145-2.092 1.921 0 3.001.929 3.001 2.509V672h-1.682v-1.025h-.116c-.41.724-1.203 1.148-2.187 1.148Zm-.773-2.317c0 .635.54 1.011 1.292 1.011 1.026 0 1.784-.67 1.784-1.558v-.602l-1.681.11c-.951.061-1.395.41-1.395 1.025v.014Zm6.802 2.194v-7.472h1.702v1.149h.116c.253-.8.937-1.272 1.921-1.272.26 0 .527.034.691.082v1.525a4.277 4.277 0 0 0-.848-.096c-1.135 0-1.88.677-1.88 1.743V672h-1.702Zm5.892 0v-10.363h1.703v5.954h.116l2.755-3.063h1.968l-3.007 3.159 3.213 4.313h-2.051l-2.4-3.233-.594.608V672h-1.703Zm10.842.15c-2.221 0-3.568-1.49-3.568-3.869v-.007c0-2.351 1.36-3.889 3.486-3.889 2.126 0 3.439 1.49 3.439 3.746v.56h-5.223c.021 1.34.745 2.12 1.9 2.12.923 0 1.45-.465 1.614-.807l.02-.048h1.62l-.02.062c-.239.963-1.237 2.132-3.268 2.132Zm-.061-6.432c-.95 0-1.661.642-1.791 1.832h3.548c-.117-1.224-.807-1.832-1.757-1.832Zm8.059 6.316c-1.715 0-2.42-.574-2.42-2.016v-4.17h-1.162v-1.32h1.162v-1.832h1.73v1.832h1.579v1.32h-1.579v3.766c0 .745.294 1.06 1.005 1.06.239 0 .369-.007.574-.028v1.313a4.838 4.838 0 0 1-.889.075Zm3.459-8.757a1.01 1.01 0 0 1-1.018-1.005c0-.553.458-1.004 1.018-1.004.554 0 1.012.451 1.012 1.004 0 .561-.458 1.005-1.012 1.005Zm-.854 8.723v-7.472h1.702V672h-1.702Zm3.794 0v-7.472h1.702v1.142h.116c.356-.8 1.073-1.285 2.153-1.285 1.668 0 2.578 1.005 2.578 2.782V672h-1.703v-4.437c0-1.162-.471-1.75-1.503-1.75-1.012 0-1.641.711-1.641 1.833V672h-1.702Zm11.771 2.625c-1.969 0-3.151-.841-3.322-2.099l.007-.02h1.702l.007.02c.116.479.683.814 1.634.814 1.162 0 1.838-.54 1.838-1.497v-1.429h-.116c-.43.8-1.244 1.237-2.276 1.237-1.894 0-3.069-1.463-3.069-3.582v-.013c0-2.16 1.175-3.651 3.103-3.651 1.032 0 1.839.506 2.263 1.354h.089v-1.231h1.702v7.287c0 1.723-1.381 2.81-3.562 2.81Zm0-4.327c1.183 0 1.894-.909 1.894-2.229v-.013c0-1.32-.718-2.236-1.894-2.236-1.182 0-1.852.916-1.852 2.236v.013c0 1.32.67 2.229 1.852 2.229Z" fill="#272833"/><rect x="164.5" y="695.5" width="23" height="23" rx="3.5" fill="#FFFBF0"/><rect x="164.5" y="695.5" width="23" height="23" rx="3.5" stroke="#E6A600"/><path d="M201.229 712.232c-2.679 0-4.354-1.982-4.354-5.154v-.014c0-3.178 1.668-5.161 4.348-5.161 2.078 0 3.698 1.306 3.992 3.2l-.007.013h-1.237l-.007-.013c-.328-1.265-1.381-2.065-2.741-2.065-1.894 0-3.083 1.559-3.083 4.026v.014c0 2.468 1.189 4.02 3.089 4.02 1.375 0 2.42-.704 2.728-1.839l.014-.014h1.244v.014c-.328 1.804-1.887 2.973-3.986 2.973Zm7.923-.102c-1.401 0-2.461-.848-2.461-2.188v-.013c0-1.313.971-2.072 2.687-2.174l2.112-.13v-.67c0-.909-.553-1.401-1.654-1.401-.882 0-1.463.328-1.654.902l-.007.021h-1.19l.007-.041c.192-1.156 1.313-1.935 2.885-1.935 1.798 0 2.803.923 2.803 2.454V712h-1.19v-1.087h-.109c-.465.786-1.237 1.217-2.229 1.217Zm-1.244-2.215c0 .745.636 1.183 1.49 1.183 1.21 0 2.092-.793 2.092-1.846v-.67l-1.969.123c-1.121.068-1.613.465-1.613 1.196v.014Zm6.946 2.085v-7.369h1.189v1.121h.109c.328-.793 1.026-1.251 1.99-1.251.998 0 1.695.526 2.037 1.292h.109c.397-.779 1.237-1.292 2.256-1.292 1.504 0 2.345.861 2.345 2.406V712h-1.19v-4.819c0-1.087-.499-1.627-1.538-1.627-1.025 0-1.702.772-1.702 1.709V712h-1.189v-5.004c0-.875-.602-1.442-1.532-1.442-.964 0-1.695.841-1.695 1.88V712h-1.189Zm12.181 2.461v-9.83h1.19v1.176h.109c.451-.821 1.271-1.306 2.297-1.306 1.866 0 3.09 1.511 3.09 3.808v.013c0 2.311-1.217 3.808-3.09 3.808-1.012 0-1.894-.506-2.297-1.292h-.109v3.623h-1.19Zm3.322-3.384c1.347 0 2.147-1.039 2.147-2.755v-.013c0-1.716-.8-2.755-2.147-2.755-1.339 0-2.16 1.052-2.16 2.755v.013c0 1.702.821 2.755 2.16 2.755Zm7.247 1.053c-1.402 0-2.461-.848-2.461-2.188v-.013c0-1.313.97-2.072 2.686-2.174l2.112-.13v-.67c0-.909-.553-1.401-1.654-1.401-.882 0-1.463.328-1.654.902l-.007.021h-1.189l.006-.041c.192-1.156 1.313-1.935 2.885-1.935 1.798 0 2.803.923 2.803 2.454V712h-1.19v-1.087h-.109c-.465.786-1.237 1.217-2.228 1.217Zm-1.245-2.215c0 .745.636 1.183 1.491 1.183 1.21 0 2.091-.793 2.091-1.846v-.67l-1.968.123c-1.121.068-1.614.465-1.614 1.196v.014Zm7.575-6.706a.823.823 0 0 1-.821-.82c0-.451.369-.821.821-.821.451 0 .82.37.82.821 0 .451-.369.82-.82.82Zm-.602 8.791v-7.369h1.189V712h-1.189Zm6.467 2.598c-1.778 0-2.912-.8-3.097-2.01l.014-.007h1.23l.007.007c.13.56.786.957 1.846.957 1.319 0 2.105-.622 2.105-1.709v-1.49h-.109c-.465.813-1.299 1.271-2.311 1.271-1.907 0-3.089-1.476-3.089-3.541v-.014c0-2.064 1.189-3.561 3.117-3.561 1.039 0 1.845.513 2.297 1.347h.082v-1.217h1.189v7.266c0 1.648-1.271 2.701-3.281 2.701Zm-.055-4.034c1.367 0 2.188-1.025 2.188-2.488v-.014c0-1.462-.828-2.508-2.188-2.508-1.367 0-2.133 1.046-2.133 2.508v.014c0 1.463.766 2.488 2.133 2.488Zm5.551 1.436v-7.369h1.189v1.107h.11c.369-.779 1.059-1.237 2.146-1.237 1.655 0 2.577.978 2.577 2.728V712h-1.189v-4.484c0-1.327-.547-1.962-1.723-1.962-1.176 0-1.921.793-1.921 2.085V712h-1.189Zm10.705.13c-1.641 0-2.769-.793-2.905-2.01h1.217c.198.615.786 1.019 1.729 1.019.991 0 1.695-.472 1.695-1.142v-.014c0-.499-.376-.847-1.285-1.066l-1.141-.273c-1.381-.329-2.003-.93-2.003-1.99v-.007c0-1.223 1.175-2.146 2.741-2.146 1.545 0 2.618.772 2.782 1.976h-1.169c-.157-.581-.731-.985-1.62-.985-.875 0-1.518.451-1.518 1.101v.013c0 .499.37.814 1.238 1.026l1.135.273c1.387.335 2.057.937 2.057 1.99v.013c0 1.313-1.278 2.222-2.953 2.222Z" fill="#272833"/><path fill="#fff" d="M148 727h280v40H148z"/><mask id="illustration-spaces-01__q" style="mask-type:alpha" maskUnits="userSpaceOnUse" x="168" y="739" width="17" height="16"><path d="M178.001 747h2a1 1 0 0 0 1-1v-2a1 1 0 0 0-1-1h-2a1 1 0 0 0-1 1v2a1 1 0 0 0 1 1Zm2 5h-2a1 1 0 0 1-1-1v-2a1 1 0 0 1 1-1h2a1 1 0 0 1 1 1v2a1 1 0 0 1-1 1Zm-7 0h2a1 1 0 0 0 1-1v-2a1 1 0 0 0-1-1h-2a1 1 0 0 0-1 1v2a1 1 0 0 0 1 1Z" fill="#6B6C7E"/><path fill-rule="evenodd" clip-rule="evenodd" d="M182.001 739h-12c-1.103 0-2 .897-2 2v12c0 1.103.897 2 2 2h12c1.104 0 2-.897 2-2v-12c0-1.103-.896-2-2-2Zm-12 2h12v12h-12v-12Z" fill="#6B6C7E"/></mask><g mask="url(#illustration-spaces-01__q)"><path fill="#272833" d="M168.001 739h16v16h-16z"/></g><path d="m196.472 752 3.636-9.864h1.217l3.637 9.864h-1.292l-.991-2.823h-3.924l-.991 2.823h-1.292Zm4.19-8.271-1.545 4.402h3.199l-1.545-4.402h-.109Zm5.947 8.271v-10.295h1.19V752h-1.19Zm3.541 0v-10.295h1.19V752h-1.19Zm10.794.232c-2.16 0-3.554-1.134-3.698-2.741l-.007-.075h1.231l.007.075c.088.985 1.114 1.607 2.536 1.607 1.34 0 2.317-.691 2.317-1.696v-.006c0-.821-.567-1.381-1.921-1.682l-1.094-.239c-1.975-.438-2.83-1.347-2.83-2.776v-.007c.007-1.633 1.436-2.789 3.473-2.789 1.969 0 3.343 1.162 3.445 2.632l.007.096h-1.23l-.014-.089c-.137-.868-.957-1.511-2.242-1.504-1.231.007-2.181.588-2.181 1.62v.007c0 .786.54 1.319 1.88 1.613l1.094.246c2.057.458 2.871 1.286 2.871 2.707v.007c0 1.846-1.442 2.994-3.644 2.994Zm5.544 2.229v-9.83h1.19v1.176h.109c.451-.821 1.272-1.306 2.297-1.306 1.866 0 3.09 1.511 3.09 3.808v.013c0 2.311-1.217 3.808-3.09 3.808-1.012 0-1.894-.506-2.297-1.292h-.109v3.623h-1.19Zm3.323-3.384c1.346 0 2.146-1.039 2.146-2.755v-.013c0-1.716-.8-2.755-2.146-2.755-1.34 0-2.161 1.052-2.161 2.755v.013c0 1.702.821 2.755 2.161 2.755Zm7.246 1.053c-1.402 0-2.461-.848-2.461-2.188v-.013c0-1.313.97-2.072 2.686-2.174l2.113-.13v-.67c0-.909-.554-1.401-1.655-1.401-.882 0-1.463.328-1.654.902l-.007.021h-1.189l.006-.041c.192-1.156 1.313-1.935 2.885-1.935 1.798 0 2.803.923 2.803 2.454V752h-1.189v-1.087h-.11c-.465.786-1.237 1.217-2.228 1.217Zm-1.245-2.215c0 .745.636 1.183 1.491 1.183 1.21 0 2.092-.793 2.092-1.846v-.67l-1.969.123c-1.121.068-1.614.465-1.614 1.196v.014Zm9.96 2.215c-2.064 0-3.383-1.497-3.383-3.835v-.014c0-2.29 1.312-3.78 3.377-3.78 1.791 0 2.864 1.032 3.083 2.345l.006.041h-1.182l-.007-.021c-.185-.724-.841-1.312-1.9-1.312-1.327 0-2.161 1.066-2.161 2.727v.014c0 1.695.848 2.782 2.161 2.782.991 0 1.62-.437 1.893-1.258l.014-.041 1.176-.007-.014.076c-.301 1.333-1.292 2.283-3.063 2.283Zm7.828 0c-2.106 0-3.377-1.477-3.377-3.787v-.007c0-2.276 1.298-3.835 3.301-3.835s3.22 1.49 3.22 3.691v.465h-5.305c.035 1.525.875 2.413 2.188 2.413.998 0 1.613-.471 1.811-.916l.028-.061h1.189l-.013.054c-.253.999-1.306 1.983-3.042 1.983Zm-.082-6.569c-1.094 0-1.928.745-2.058 2.146h4.074c-.123-1.456-.93-2.146-2.016-2.146Zm7.601 6.569c-1.64 0-2.768-.793-2.905-2.01h1.217c.198.615.786 1.019 1.729 1.019.991 0 1.695-.472 1.695-1.142v-.014c0-.499-.376-.847-1.285-1.066l-1.141-.273c-1.381-.329-2.003-.93-2.003-1.99v-.007c0-1.223 1.176-2.146 2.741-2.146 1.545 0 2.618.772 2.782 1.976h-1.169c-.157-.581-.731-.985-1.62-.985-.875 0-1.517.451-1.517 1.101v.013c0 .499.369.814 1.237 1.026l1.135.273c1.387.335 2.057.937 2.057 1.99v.013c0 1.313-1.278 2.222-2.953 2.222Z" fill="#272833"/><path d="M176.176 711.211c-2.397 0-3.885-1.699-3.885-4.43v-.011c0-2.743 1.482-4.436 3.879-4.436 1.922 0 3.381 1.219 3.58 2.947v.047h-1.482l-.006-.023c-.217-1.002-1.026-1.664-2.092-1.664-1.436 0-2.332 1.201-2.332 3.123v.011c0 1.928.896 3.129 2.338 3.129 1.072 0 1.869-.597 2.086-1.529l.006-.029h1.482v.041c-.223 1.693-1.623 2.824-3.574 2.824Z" fill="#705100"/><path d="M171.676 671v-8.455h1.734l2.543 6.504h.1l2.537-6.504h1.734V671h-1.359v-6.012h-.106L176.516 671h-1.032l-2.343-6.012h-.1V671h-1.365Z" fill="#5D00E6"/><path fill-rule="evenodd" clip-rule="evenodd" d="M175.047 107.264c2.495-3.499 9.433-3.012 13.176.365 7.059 6.36-2.1 22.031-10.681 15.763a9.02 9.02 0 0 1-.639-.487c-2.708-2.343-4.899-5.66-2.587-14.119.152-.579.426-1.065.731-1.522Z" fill="#1AA0E8"/><path fill-rule="evenodd" clip-rule="evenodd" d="M175.047 107.264c7.211-2.952 16.249 4.139 9.22 12.02-1.644 1.826-4.2 3.438-6.725 4.108-1.826.487-3.652.456-5.082-.365-3.438-1.917-4.29-8.734-1.643-12.385 1.217-1.643 2.678-2.739 4.23-3.378Z" fill="#0B63CE"/><path d="M184.267 119.284c7.029-7.881-2.009-14.972-9.22-12.02-.305.457-.579.943-.731 1.522-2.312 8.459-.121 11.776 2.587 14.119.213.182.426.335.639.487 2.525-.67 5.081-2.282 6.725-4.108Z" fill="#134194"/><rect x="208" y="109.5" width="108" height="11" rx="5.5" fill="#E7E7ED"/><path fill="#9393A4" d="M428 83h.5v1024h-.5z"/><rect x="452.5" y="171.5" width="757" height="316" rx="3.5" fill="#fff"/><rect x="452.5" y="171.5" width="757" height="316" rx="3.5" stroke="#CDCED9"/><path d="M468 191a4 4 0 0 1 4-4h16a4 4 0 0 1 4 4v16a4 4 0 0 1-4 4h-16a4 4 0 0 1-4-4v-16Z" fill="#E7E7ED"/><rect x="500" y="193.5" width="80" height="11" rx="5.5" fill="#E7E7ED"/><path d="M468 231a4 4 0 0 1 4-4h718a4 4 0 0 1 4 4v237a4 4 0 0 1-4 4H472a4 4 0 0 1-4-4V231Z" fill="#F7F8F9"/><rect x="452.5" y="512.5" width="757" height="316" rx="3.5" fill="#fff"/><rect x="452.5" y="512.5" width="757" height="316" rx="3.5" stroke="#CDCED9"/><path d="M468 532a4 4 0 0 1 4-4h16a4 4 0 0 1 4 4v16a4 4 0 0 1-4 4h-16a4 4 0 0 1-4-4v-16Z" fill="#E7E7ED"/><rect x="500" y="534.5" width="80" height="11" rx="5.5" fill="#E7E7ED"/><path d="M468 572a4 4 0 0 1 4-4h718a4 4 0 0 1 4 4v237a4 4 0 0 1-4 4H472a4 4 0 0 1-4-4V572Z" fill="#F7F8F9"/></g></g><rect x="110.337" y="602.337" width="328.326" height="180.29" rx="11.903" fill="#fff"/><rect x="110.337" y="602.337" width="328.326" height="180.29" rx="11.903" stroke="#B3CDFF" stroke-width="7.326"/><rect x="113.176" y="605.176" width="322.648" height="174.612" rx="9.065" stroke="#0B5FFF" stroke-width="1.648"/><path d="M136.193 632.755c-2.34 0-3.85-1.229-4.006-2.969l-.007-.081h1.333l.007.081c.096 1.067 1.207 1.74 2.747 1.74 1.451 0 2.51-.747 2.51-1.836v-.007c0-.889-.615-1.496-2.081-1.821l-1.184-.26c-2.14-.473-3.065-1.458-3.065-3.005v-.008c.007-1.769 1.554-3.02 3.761-3.02 2.132 0 3.62 1.258 3.731 2.85l.007.104h-1.332l-.015-.097c-.148-.94-1.037-1.636-2.428-1.628-1.333.007-2.362.636-2.362 1.754v.008c0 .851.585 1.428 2.036 1.747l1.184.266c2.229.496 3.11 1.392 3.11 2.932v.008c0 1.999-1.562 3.242-3.946 3.242Zm6.004 2.414v-10.646h1.288v1.273h.119c.488-.888 1.377-1.414 2.487-1.414 2.021 0 3.347 1.636 3.347 4.124v.014c0 2.503-1.318 4.124-3.347 4.124-1.095 0-2.05-.548-2.487-1.399h-.119v3.924h-1.288Zm3.598-3.665c1.459 0 2.325-1.125 2.325-2.984v-.014c0-1.859-.866-2.984-2.325-2.984-1.451 0-2.339 1.14-2.339 2.984v.014c0 1.844.888 2.984 2.339 2.984Zm7.848 1.14c-1.518 0-2.665-.918-2.665-2.369v-.015c0-1.421 1.051-2.243 2.909-2.354l2.288-.141v-.725c0-.985-.6-1.518-1.792-1.518-.955 0-1.584.355-1.791.977l-.008.023h-1.288l.007-.045c.208-1.251 1.422-2.095 3.125-2.095 1.947 0 3.035.999 3.035 2.658v5.464h-1.288v-1.178h-.118c-.504.852-1.341 1.318-2.414 1.318Zm-1.347-2.398c0 .807.688 1.28 1.613 1.28 1.311 0 2.266-.858 2.266-1.999v-.725l-2.132.133c-1.214.074-1.747.504-1.747 1.296v.015Zm10.786 2.398c-2.235 0-3.664-1.621-3.664-4.153v-.015c0-2.48 1.421-4.094 3.657-4.094 1.94 0 3.102 1.118 3.339 2.539l.007.045h-1.28l-.008-.022c-.2-.785-.91-1.422-2.058-1.422-1.436 0-2.339 1.155-2.339 2.954v.015c0 1.836.918 3.013 2.339 3.013 1.074 0 1.755-.474 2.051-1.362l.015-.045 1.273-.007-.015.081c-.325 1.444-1.399 2.473-3.317 2.473Zm8.478 0c-2.281 0-3.658-1.599-3.658-4.101v-.008c0-2.465 1.407-4.153 3.576-4.153s3.487 1.614 3.487 3.998v.503h-5.745c.037 1.651.948 2.614 2.369 2.614 1.081 0 1.747-.511 1.962-.992l.03-.067h1.288l-.015.059c-.274 1.081-1.414 2.147-3.294 2.147Zm-.089-7.115c-1.185 0-2.088.807-2.229 2.325h4.413c-.133-1.577-1.007-2.325-2.184-2.325Zm8.232 7.115c-1.776 0-2.998-.859-3.146-2.176h1.318c.215.666.851 1.103 1.873 1.103 1.073 0 1.836-.511 1.836-1.237v-.014c0-.541-.407-.918-1.392-1.155l-1.236-.297c-1.496-.355-2.17-1.006-2.17-2.154v-.007c0-1.326 1.274-2.325 2.969-2.325 1.674 0 2.836.836 3.014 2.14h-1.266c-.171-.63-.793-1.067-1.755-1.067-.948 0-1.644.489-1.644 1.192v.015c0 .541.4.881 1.34 1.111l1.229.296c1.503.363 2.229 1.014 2.229 2.154v.015c0 1.422-1.385 2.406-3.199 2.406Z" fill="#272833"/><mask id="illustration-spaces-01__r" style="mask-type:alpha" maskUnits="userSpaceOnUse" x="403" y="624" width="12" height="7"><path d="m409.735 630.272 4.386-4.452c.859-.913-.309-2.154-1.151-1.261l-3.963 4.032-4.007-4.056c-.782-.831-1.93.45-1.145 1.285l4.397 4.462c.53.576.852.671 1.483-.01Z" fill="#6B6C7E"/></mask><g mask="url(#illustration-spaces-01__r)"><path fill="#6B6C7E" d="M400.343 618.836h17.329v17.329h-17.329z"/></g><path fill="#F0F5FF" d="M114 649h321v43.321H114z"/><rect x="131.87" y="658.206" width="24.91" height="24.91" rx="3.791" fill="#F6F0FF"/><rect x="131.87" y="658.206" width="24.91" height="24.91" rx="3.791" stroke="#5D00E6" stroke-width="1.083"/><path d="M167.304 675.664v-10.683h2.191l3.213 8.218h.126l3.206-8.218h2.191v10.683h-1.717v-7.596h-.134l-2.961 7.596h-1.303l-2.962-7.596h-.125v7.596h-1.725Zm15.577.134c-1.54 0-2.658-.948-2.658-2.421v-.015c0-1.444 1.103-2.288 3.072-2.406l2.081-.126v-.696c0-.807-.526-1.251-1.518-1.251-.844 0-1.392.303-1.577.836l-.007.03h-1.74l.007-.067c.178-1.362 1.481-2.265 3.406-2.265 2.08 0 3.25 1.007 3.25 2.717v5.53h-1.821v-1.11h-.126c-.444.785-1.303 1.244-2.369 1.244Zm-.837-2.51c0 .688.585 1.095 1.399 1.095 1.111 0 1.933-.725 1.933-1.688v-.651l-1.822.118c-1.029.067-1.51.445-1.51 1.111v.015Zm7.367 2.376v-8.092h1.843v1.244h.126c.274-.866 1.014-1.377 2.08-1.377.282 0 .57.037.748.089v1.651a4.667 4.667 0 0 0-.918-.104c-1.229 0-2.036.733-2.036 1.888v4.701h-1.843Zm6.381 0v-11.223h1.844v6.448h.126l2.983-3.317h2.133l-3.258 3.421 3.48 4.671h-2.221l-2.599-3.502-.644.659v2.843h-1.844Zm11.743.163c-2.407 0-3.865-1.614-3.865-4.19v-.008c0-2.546 1.473-4.212 3.776-4.212 2.302 0 3.724 1.614 3.724 4.057v.607h-5.657c.023 1.451.807 2.295 2.059 2.295.999 0 1.569-.503 1.747-.874l.022-.051h1.755l-.023.066c-.259 1.044-1.34 2.31-3.538 2.31Zm-.067-6.967c-1.029 0-1.799.696-1.94 1.985h3.843c-.126-1.326-.874-1.985-1.903-1.985Zm8.729 6.841c-1.859 0-2.621-.622-2.621-2.184v-4.516h-1.259v-1.429h1.259v-1.984h1.873v1.984h1.71v1.429h-1.71v4.079c0 .807.318 1.148 1.088 1.148.259 0 .4-.007.622-.03v1.422a5.23 5.23 0 0 1-.962.081Zm3.746-9.484a1.093 1.093 0 0 1-1.103-1.088c0-.6.496-1.088 1.103-1.088.6 0 1.096.488 1.096 1.088 0 .607-.496 1.088-1.096 1.088Zm-.926 9.447v-8.092h1.844v8.092h-1.844Zm4.109 0v-8.092h1.844v1.237h.126c.385-.867 1.162-1.392 2.332-1.392 1.806 0 2.791 1.088 2.791 3.013v5.234h-1.843v-4.805c0-1.258-.511-1.895-1.629-1.895-1.096 0-1.777.77-1.777 1.984v4.716h-1.844Zm12.749 2.843c-2.132 0-3.413-.91-3.598-2.273l.008-.022h1.843l.008.022c.125.519.74.881 1.769.881 1.259 0 1.992-.584 1.992-1.621v-1.547h-.126c-.467.866-1.348 1.34-2.466 1.34-2.051 0-3.324-1.585-3.324-3.88v-.015c0-2.339 1.273-3.953 3.361-3.953 1.118 0 1.992.548 2.451 1.466h.096v-1.333h1.844v7.892c0 1.866-1.496 3.043-3.858 3.043Zm0-4.686c1.281 0 2.051-.985 2.051-2.414v-.015c0-1.428-.777-2.421-2.051-2.421-1.28 0-2.006.993-2.006 2.421v.015c0 1.429.726 2.414 2.006 2.414Z" fill="#272833"/><rect x="131.87" y="701.527" width="24.91" height="24.91" rx="3.791" fill="#FFFBF0"/><rect x="131.87" y="701.527" width="24.91" height="24.91" rx="3.791" stroke="#E6A600" stroke-width="1.083"/><path d="M167.348 718.986v-10.684h1.333v4.62h5.863v-4.62h1.333v10.684h-1.333v-4.864h-5.863v4.864h-1.333Zm11.253 0v-10.684h4.08c2.058 0 3.405 1.259 3.405 3.177v.014c0 1.481-.807 2.636-2.147 3.058l2.473 4.435h-1.562l-2.288-4.228h-2.628v4.228h-1.333Zm1.333-5.412h2.628c1.37 0 2.147-.733 2.147-2.036v-.015c0-1.273-.829-2.036-2.206-2.036h-2.569v4.087Z" fill="#272833"/><rect x="114" y="735.643" width="321" height="43.321" rx="8.664" fill="#fff"/><mask id="illustration-spaces-01__s" style="mask-type:alpha" maskUnits="userSpaceOnUse" x="135" y="748" width="18" height="18"><path d="M146.493 757.304h2.166c.598 0 1.083-.484 1.083-1.083v-2.167c0-.599-.485-1.083-1.083-1.083h-2.166c-.599 0-1.083.484-1.083 1.083v2.167c0 .599.484 1.083 1.083 1.083Zm2.166 5.415h-2.166a1.082 1.082 0 0 1-1.083-1.083v-2.166c0-.599.484-1.083 1.083-1.083h2.166c.598 0 1.083.484 1.083 1.083v2.166c0 .599-.485 1.083-1.083 1.083Zm-7.582 0h2.166c.599 0 1.084-.484 1.084-1.083v-2.166c0-.599-.485-1.083-1.084-1.083h-2.166c-.598 0-1.083.484-1.083 1.083v2.166c0 .599.485 1.083 1.083 1.083Z" fill="#6B6C7E"/><path fill-rule="evenodd" clip-rule="evenodd" d="M150.825 748.639h-12.997a2.168 2.168 0 0 0-2.166 2.166v12.997c0 1.194.971 2.166 2.166 2.166h12.997a2.168 2.168 0 0 0 2.166-2.166v-12.997a2.168 2.168 0 0 0-2.166-2.166Zm-12.997 2.166h12.997v12.997h-12.997v-12.997Z" fill="#6B6C7E"/></mask><g mask="url(#illustration-spaces-01__s)"><path fill="#272833" d="M135.662 748.639h17.329v17.329h-17.329z"/></g><path d="m166.497 762.307 3.938-10.683h1.318l3.939 10.683h-1.399l-1.074-3.058h-4.25l-1.073 3.058h-1.399Zm4.538-8.958-1.673 4.768h3.465l-1.674-4.768h-.118Zm6.441 8.958v-11.15h1.288v11.15h-1.288Zm3.835 0v-11.15h1.288v11.15h-1.288Zm11.69.252c-2.339 0-3.85-1.229-4.005-2.969l-.007-.081h1.332l.008.081c.096 1.066 1.206 1.74 2.746 1.74 1.451 0 2.51-.748 2.51-1.836v-.008c0-.888-.614-1.495-2.08-1.821l-1.185-.259c-2.139-.474-3.065-1.459-3.065-3.006v-.007c.008-1.77 1.555-3.021 3.761-3.021 2.132 0 3.62 1.259 3.732 2.85l.007.104h-1.333l-.015-.096c-.148-.94-1.036-1.636-2.428-1.629-1.333.007-2.362.637-2.362 1.755v.007c0 .852.585 1.429 2.036 1.747l1.185.267c2.228.496 3.109 1.392 3.109 2.932v.007c0 1.999-1.562 3.243-3.946 3.243Zm6.005 2.413v-10.646h1.288v1.274h.118c.489-.889 1.377-1.415 2.488-1.415 2.021 0 3.346 1.637 3.346 4.124v.015c0 2.502-1.318 4.124-3.346 4.124-1.096 0-2.051-.548-2.488-1.399h-.118v3.923h-1.288Zm3.598-3.664c1.458 0 2.324-1.126 2.324-2.984v-.015c0-1.858-.866-2.983-2.324-2.983-1.451 0-2.34 1.14-2.34 2.983v.015c0 1.843.889 2.984 2.34 2.984Zm7.848 1.14c-1.518 0-2.666-.918-2.666-2.369v-.015c0-1.422 1.052-2.243 2.91-2.354l2.288-.141v-.726c0-.984-.6-1.517-1.792-1.517-.955 0-1.584.355-1.792.977l-.007.022h-1.288l.007-.044c.207-1.252 1.421-2.096 3.124-2.096 1.947 0 3.036 1 3.036 2.658v5.464h-1.288v-1.177h-.119c-.503.851-1.34 1.318-2.413 1.318Zm-1.348-2.399c0 .807.689 1.281 1.614 1.281 1.31 0 2.266-.859 2.266-1.999v-.726l-2.133.134c-1.214.074-1.747.503-1.747 1.295v.015Zm10.787 2.399c-2.236 0-3.665-1.622-3.665-4.154v-.014c0-2.481 1.422-4.095 3.658-4.095 1.939 0 3.102 1.118 3.339 2.54l.007.044h-1.281l-.007-.022c-.2-.785-.911-1.421-2.058-1.421-1.437 0-2.34 1.155-2.34 2.954v.014c0 1.836.918 3.014 2.34 3.014 1.073 0 1.754-.474 2.05-1.363l.015-.044 1.274-.007-.015.081c-.326 1.444-1.399 2.473-3.317 2.473Zm8.477 0c-2.28 0-3.657-1.599-3.657-4.102v-.007c0-2.466 1.406-4.154 3.576-4.154 2.169 0 3.487 1.614 3.487 3.998v.504h-5.745c.037 1.651.947 2.613 2.369 2.613 1.081 0 1.747-.511 1.962-.992l.029-.066h1.289l-.015.059c-.274 1.081-1.414 2.147-3.295 2.147Zm-.089-7.115c-1.184 0-2.088.807-2.228 2.325h4.412c-.133-1.577-1.007-2.325-2.184-2.325Zm8.233 7.115c-1.777 0-2.998-.859-3.146-2.177h1.317c.215.666.852 1.103 1.873 1.103 1.074 0 1.837-.511 1.837-1.236v-.015c0-.54-.408-.918-1.392-1.155l-1.237-.296c-1.495-.355-2.169-1.007-2.169-2.154v-.008c0-1.325 1.273-2.325 2.969-2.325 1.673 0 2.835.837 3.013 2.14h-1.266c-.17-.629-.792-1.066-1.755-1.066-.947 0-1.643.489-1.643 1.192v.015c0 .54.4.881 1.34 1.11l1.229.296c1.503.363 2.228 1.015 2.228 2.155v.015c0 1.421-1.384 2.406-3.198 2.406Z" fill="#272833"/><path d="M140.462 719.307v-9.157h1.637v3.807h4.455v-3.807h1.631v9.157h-1.631v-3.973h-4.455v3.973h-1.637Z" fill="#705100"/><path d="M139.643 675.986v-9.158h1.879l2.754 7.044h.108l2.747-7.044h1.879v9.158h-1.472v-6.511h-.115l-2.538 6.511h-1.117l-2.538-6.511h-.108v6.511h-1.479Z" fill="#5D00E6"/></g><rect x=".5" y=".5" width="683" height="911" rx="7.5" stroke="#E7E7ED"/><defs><clipPath id="illustration-spaces-01__a"><rect width="684" height="912" rx="8" fill="#fff"/></clipPath><clipPath id="illustration-spaces-01__c"><rect x="148" y="83" width="1156" height="746" rx="16" fill="#fff"/></clipPath><clipPath id="illustration-spaces-01__d"><rect x="452" y="99" width="32" height="32" rx="4" fill="#fff"/></clipPath><filter id="illustration-spaces-01__b" x="132" y="75" width="1188" height="778" filterUnits="userSpaceOnUse" color-interpolation-filters="sRGB"><feFlood flood-opacity="0" result="BackgroundImageFix"/><feColorMatrix in="SourceAlpha" values="0 0 0 0 0 0 0 0 0 0 0 0 0 0 0 0 0 0 127 0" result="hardAlpha"/><feOffset dy="8"/><feGaussianBlur stdDeviation="8"/><feColorMatrix values="0 0 0 0 0.152941 0 0 0 0 0.156863 0 0 0 0 0.2 0 0 0 0.16 0"/><feBlend in2="BackgroundImageFix" result="effect1_dropShadow_687_39629"/><feBlend in="SourceGraphic" in2="effect1_dropShadow_687_39629" result="shape"/></filter></defs></svg>