<svg fill="none" height="57" width="114" xmlns="http://www.w3.org/2000/svg">
	<path d="M24.508 8.41 8.651 14.182a3.748 3.748 0 0 0-2.241 4.806L16.67 47.18a3.748 3.748 0 0 0 4.807 2.241l21.143-7.695a3.748 3.748 0 0 0 2.24-4.806l-8.336-22.905L24.508 8.41Z" fill="#F7F8F9" />
	<path d="M24.508 8.41 8.651 14.182a3.748 3.748 0 0 0-2.241 4.806L16.67 47.18a3.748 3.748 0 0 0 4.807 2.241l21.143-7.695a3.748 3.748 0 0 0 2.24-4.806l-8.336-22.905L24.508 8.41Zm4.334 28.353-8.81 3.206-.641-1.761L28.2 35l.64 1.762Zm6.885-8.492-17.619 6.413-.641-1.762 17.62-6.413.64 1.762Zm-1.923-5.286-17.62 6.413-.641-1.762 17.62-6.413.64 1.762Z" fill="#80ACFF" />
	<path d="M100.063 14.939 84.206 9.167A3.748 3.748 0 0 0 79.4 11.41L69.139 39.6a3.748 3.748 0 0 0 2.241 4.807L92.523 52.1a3.748 3.748 0 0 0 4.807-2.241l8.336-22.905-5.603-12.016Z" fill="#F7F8F9" />
	<path clip-rule="evenodd" d="m84.206 9.167 15.857 5.772 5.603 12.016L97.33 49.86a3.748 3.748 0 0 1-4.807 2.241L71.38 44.406a3.748 3.748 0 0 1-2.241-4.807l10.26-28.19a3.748 3.748 0 0 1 4.807-2.242ZM75.707 38l17.62 6.413 5.13-14.095-17.62-6.413L75.707 38Zm5.608-9.93 5.286 1.923-3.206 8.81-5.286-1.924 3.206-8.81Zm5.122 7.85 7.048 2.565-1.282 3.524-7.048-2.566 1.282-3.523Zm8.972-2.72-7.048-2.566-1.282 3.524 7.047 2.565 1.283-3.524Z" fill="#80ACFF" fill-rule="evenodd" />
	<path d="M64.876 1.75H41.251A5.247 5.247 0 0 0 36.001 7v42a5.247 5.247 0 0 0 5.25 5.25h31.5a5.247 5.247 0 0 0 5.25-5.25V14.875L64.876 1.75Z" fill="#F7F8F9" />
	<path d="M64.876 1.75H41.251A5.247 5.247 0 0 0 36.001 7v42a5.247 5.247 0 0 0 5.25 5.25h31.5a5.247 5.247 0 0 0 5.25-5.25V14.875L64.876 1.75Zm-15.75 21a2.63 2.63 0 0 1 2.625 2.625A2.63 2.63 0 0 1 49.126 28a2.63 2.63 0 0 1-2.625-2.625 2.63 2.63 0 0 1 2.625-2.625Zm-5.25 18.375 7.875-10.5 5.25 5.25L62.251 28l7.875 13.125h-26.25Z" fill="#0B5FFF" />
</svg>