<svg width="140" height="80" viewBox="0 0 140 80" fill="none" xmlns="http://www.w3.org/2000/svg">
<rect x="0.5" y="0.5" width="31" height="79" rx="3.5" fill="#F0F5FF" stroke="#5791FF"/>
<rect x="36.5" y="0.5" width="79" height="25" rx="3.5" fill="white" stroke="#5791FF"/>
<rect x="53" y="8" width="25" height="3" fill="#80ACFF"/>
<rect opacity="0.7" x="44" y="8" width="3" height="3" fill="#0053F0"/>
<rect x="53" y="15" width="41" height="3" fill="#80ACFF"/>
<rect opacity="0.7" x="44" y="15" width="3" height="3" fill="#0053F0"/>
<rect x="36.5" y="30.5" width="79" height="49" rx="3.5" fill="#F0F5FF" stroke="#5791FF"/>
<rect x="43" y="47" width="96" height="26" rx="5" fill="white" stroke="#B3CDFF" stroke-width="2"/>
<rect x="47.9602" y="52" width="15.8416" height="16" rx="4" fill="#0B5FFF"/>
<mask id="mask0_2246_279" style="mask-type:alpha" maskUnits="userSpaceOnUse" x="51" y="56" width="9" height="8">
<path d="M58.3371 56V56.5H57.8421V63.5H58.3371V64H56.3569V63.5H56.852V56.5H56.3569V56H58.3371Z" fill="#6B6C7E"/>
<path d="M53.8817 59.5H55.3668C56.0108 59.5 56.0108 60.5 55.3668 60.5H53.8817C53.2382 60.45 53.2382 59.5 53.8817 59.5Z" fill="#6B6C7E"/>
<path d="M56.3569 61.5H52.8916V58.5H56.3569V57.5H52.3965C52.0997 57.5 51.9015 57.7 51.9015 58V62C51.9015 62.3 52.0997 62.5 52.3965 62.5H56.3569V61.5Z" fill="#6B6C7E"/>
<path d="M58.3371 57.5H59.3272C59.6241 57.5 59.8223 57.7 59.8223 58V62C59.8223 62.3 59.6241 62.5 59.3272 62.5H58.3371V61.5H58.8322V58.5H58.3371V57.5Z" fill="#6B6C7E"/>
</mask>
<g mask="url(#mask0_2246_279)">
<rect x="51.9015" y="56" width="7.92079" height="8" fill="white"/>
</g>
<rect x="71.7228" y="55" width="32" height="4" fill="#80ACFF"/>
<rect opacity="0.5" x="71.7228" y="63" width="59.4059" height="2" fill="#80ACFF"/>
</svg>
