<svg fill="none" height="64" viewBox="0 0 172 64" width="172" xmlns="http://www.w3.org/2000/svg">
	<g clip-path="url(#clip0_2456_3798)">
		<path d="M42.6962 27.1664C-8.45376 79.5523 -21.3852 159.021 40.3183 224.387C102.022 289.753 176.482 252.453 225.073 202.688C276.223 150.302 272.434 68.4779 219.858 17.1403C167.281 -34.1974 93.8462 -25.2194 42.6962 27.1664Z" fill="url(#paint0_linear_2456_3798)" />
		<path d="M262.169 25.1314C198.272 -71.3644 77.6534 -38.2027 49.0372 18.1012C19.2401 76.7344 53.9354 219.304 129.907 265.536C223.821 322.688 326.172 121.783 262.169 25.1282V25.1314Z" fill="url(#paint1_linear_2456_3798)" />
	</g>
	<defs>
		<linearGradient gradientUnits="userSpaceOnUse" id="paint0_linear_2456_3798" x1="-4.43875" x2="136.937" y1="-23.4821" y2="127.991">
			<stop stop-color="white" stop-opacity="0.7" />
			<stop offset="0.11" stop-color="white" stop-opacity="0.55" />
			<stop offset="0.25" stop-color="white" stop-opacity="0.38" />
			<stop offset="0.39" stop-color="white" stop-opacity="0.24" />
			<stop offset="0.53" stop-color="white" stop-opacity="0.14" />
			<stop offset="0.67" stop-color="white" stop-opacity="0.06" />
			<stop offset="0.81" stop-color="white" stop-opacity="0.01" />
			<stop offset="0.96" stop-color="white" stop-opacity="0" />
		</linearGradient>
		<linearGradient gradientUnits="userSpaceOnUse" id="paint1_linear_2456_3798" x1="56.5916" x2="239.622" y1="-127.413" y2="269.15">
			<stop stop-color="white" stop-opacity="0.25" />
			<stop offset="0.52" stop-color="white" stop-opacity="0.08" />
			<stop offset="0.81" stop-color="white" stop-opacity="0" />
		</linearGradient>
		<clipPath id="clip0_2456_3798">
			<rect fill="white" height="220" transform="translate(0 -78)" width="220" />
		</clipPath>
	</defs>
</svg>