<svg fill="none" height="72" viewBox="0 0 248 72" width="248" xmlns="http://www.w3.org/2000/svg">
	<rect fill="#F0F5FF" height="46.2075" rx="1.49057" width="16.3962" x="90.8755" />
	<rect fill="#80ACFF" height="28.3208" rx="1.49057" width="16.3962" x="90.8755" y="17.8867" />
	<rect fill="#F0F5FF" height="20.8679" rx="1.49057" width="16.3962" x="110.253" y="25.3396" />
	<rect fill="#80ACFF" height="13.4151" rx="1.49057" width="16.3962" x="110.253" y="32.7925" />
	<rect fill="#F0F5FF" height="32.7925" rx="1.49057" width="16.3962" x="129.63" y="13.415" />
	<rect fill="#80ACFF" height="7.45283" rx="1.49057" width="16.3962" x="129.63" y="38.7546" />
	<path d="M1.38277 57.448C15.0675 65.7712 24.051 62.4312 66.1772 37.8625" stroke="#5791FF" stroke-width="2" />
	<circle cx="27.1443" cy="47.7504" r="10" stroke="#5791FF" stroke-width="2" transform="rotate(10.7576 27.1443 47.7504)" />
	<path d="M65.6497 30.3911L72.363 41.5235L67.7859 44.2838C64.7118 46.1376 60.7168 45.1484 58.863 42.0742C57.0092 39.0001 57.9984 35.0052 61.0725 33.1514L65.6497 30.3911Z" fill="#0B5FFF" />
	<path d="M172.49 27.9325C203.49 2.50024 202.99 46 222.49 46C238.99 46 244.99 30.0002 246.99 23.0002" stroke="#5791FF" stroke-width="2" />
	<path d="M169.472 21.0011C172.146 18.6064 176.255 18.8323 178.65 21.506C181.045 24.1801 180.819 28.2896 178.145 30.6847L174.163 34.2511L172.569 32.4699L169.405 35.3048L168.071 33.8156L171.235 30.9806L168.321 27.7277L165.156 30.5626L163.823 29.0724L166.987 26.2374L165.49 24.5675L169.472 21.0011Z" fill="#0B5FFF" />
</svg>