<svg fill="none" height="108" viewBox="0 0 81 108" width="81" xmlns="http://www.w3.org/2000/svg">
	<rect fill="white" height="31" rx="3" width="78.9999" x="1" y="24" />
	<rect height="31" rx="3" stroke="#6B6C7E" stroke-dasharray="4 2" stroke-width="2" width="78.9999" x="1" y="24" />
	<rect height="31" rx="3" stroke="black" stroke-dasharray="4 2" stroke-opacity="0.2" stroke-width="2" width="78.9999" x="1" y="24" />
	<rect fill="white" height="31" rx="3" stroke="#6B6C7E" stroke-dasharray="4 2" stroke-width="2" width="78.9999" x="1" y="24" />
	<rect fill="white" height="27" rx="1" stroke="#CDCED9" stroke-width="2" width="74.9999" x="3" y="26" />
	<rect fill="white" height="27" stroke="#CDCED9" stroke-width="2" width="74.9999" x="3" y="53" />
	<rect height="31" rx="3" stroke="#6B6C7E" stroke-dasharray="4 2" stroke-width="2" width="78.9999" x="1" y="24" />
	<path d="M3 80H77.9999V106C77.9999 106.552 77.5522 107 76.9999 107H4C3.44771 107 3 106.552 3 106V80Z" fill="white" stroke="#CDCED9" stroke-width="2" />
	<rect fill="#F7F8F9" height="12" rx="2" stroke="#E2E4EA" stroke-dasharray="3 2" stroke-width="2" width="15.5" x="33.25" y="61" />
	<mask height="7" id="mask0_30_16494" maskUnits="userSpaceOnUse" style="mask-type:alpha" width="7" x="38" y="63">
		<path d="M44.4713 69.3235L42.4017 65.8926C42.3359 65.7837 42.1864 65.7646 42.0966 65.8543L40.7604 67.187L40.2699 66.6977C40.1802 66.608 40.0306 66.6259 39.9648 66.736L38.4037 69.3235C38.3235 69.4551 38.418 69.625 38.5712 69.625H44.3026C44.4569 69.625 44.5502 69.4551 44.4713 69.3235ZM40.289 64.4546C40.289 65.7335 38.375 65.7335 38.375 64.4546C38.375 63.1806 40.289 63.183 40.289 64.4546Z" fill="#6B6C7E" />
	</mask>
	<g mask="url(#mask0_30_16494)">
		<rect fill="#E2E4EA" height="6.125" width="6.125" x="38.375" y="63.5" />
	</g>
	<rect fill="#F7F8F9" height="12" rx="2" stroke="#E2E4EA" stroke-dasharray="3 2" stroke-width="2" width="15.5" x="33.25" y="88" />
	<mask height="7" id="mask1_30_16494" maskUnits="userSpaceOnUse" style="mask-type:alpha" width="7" x="38" y="90">
		<path d="M44.4713 96.3235L42.4017 92.8926C42.3359 92.7837 42.1864 92.7646 42.0966 92.8543L40.7604 94.187L40.2699 93.6977C40.1802 93.608 40.0306 93.6259 39.9648 93.736L38.4037 96.3235C38.3235 96.4551 38.418 96.625 38.5712 96.625H44.3026C44.4569 96.625 44.5502 96.4551 44.4713 96.3235ZM40.289 91.4546C40.289 92.7335 38.375 92.7335 38.375 91.4546C38.375 90.1806 40.289 90.183 40.289 91.4546Z" fill="#6B6C7E" />
	</mask>
	<g mask="url(#mask1_30_16494)">
		<rect fill="#E2E4EA" height="6.125" width="6.125" x="38.375" y="90.5" />
	</g>
	<path d="M38.2829 42.6933L40.332 44.7424C40.6725 45.0515 41.2735 45.0629 41.6427 44.7424L43.6918 42.6933C44.5446 41.7317 43.2396 40.5498 42.381 41.3826L41.9031 41.8605L41.9031 35.912C41.9031 34.6957 40.0715 34.6957 40.0715 35.912L40.0715 41.8605L39.5936 41.3826C38.6836 40.5269 37.4329 41.809 38.2829 42.6933Z" fill="#6B6C7E" />
	<g filter="url(#filter0_d_30_16494)">
		<rect fill="white" height="24" rx="3.78723" width="32" x="25" y="8" />
	</g>
	<mask height="17" id="mask2_30_16494" maskUnits="userSpaceOnUse" style="mask-type:alpha" width="17" x="33" y="11">
		<path d="M49.1804 27.1061L43.7741 18.1436C43.6022 17.8592 43.2116 17.8092 42.9772 18.0436L39.4866 21.5248L38.2054 20.2467C37.971 20.0123 37.5804 20.0592 37.4085 20.3467L33.3304 27.1061C33.121 27.4498 33.3679 27.8936 33.7679 27.8936H48.7397C49.1429 27.8936 49.3866 27.4498 49.1804 27.1061ZM38.2554 14.3873C38.2554 17.7279 33.2554 17.7279 33.2554 14.3873C33.2554 11.0592 38.2554 11.0654 38.2554 14.3873Z" fill="#6B6C7E" />
	</mask>
	<g mask="url(#mask2_30_16494)">
		<rect fill="#6B6C7E" height="16" width="16" x="33.2554" y="11.8936" />
	</g>
	<mask height="17" id="mask3_30_16494" maskUnits="userSpaceOnUse" style="mask-type:alpha" width="17" x="33" y="11">
		<path d="M49.1804 27.1061L43.7741 18.1436C43.6022 17.8592 43.2116 17.8092 42.9772 18.0436L39.4866 21.5248L38.2054 20.2467C37.971 20.0123 37.5804 20.0592 37.4085 20.3467L33.3304 27.1061C33.121 27.4498 33.3679 27.8936 33.7679 27.8936H48.7397C49.1429 27.8936 49.3866 27.4498 49.1804 27.1061ZM38.2554 14.3873C38.2554 17.7279 33.2554 17.7279 33.2554 14.3873C33.2554 11.0592 38.2554 11.0654 38.2554 14.3873Z" fill="#6B6C7E" />
	</mask>
	<g mask="url(#mask3_30_16494)">
		<rect fill="#6B6C7E" height="16" width="16" x="33.2554" y="11.8936" />
	</g>
	<rect fill="#A7A9BC" height="14" rx="4" width="14" x="8" y="32" />
	<path d="M13.0128 42V40.929H14.5518V37.626H13.2828V36.807C13.5408 36.765 13.7628 36.723 13.9488 36.681C14.1408 36.633 14.3118 36.579 14.4618 36.519C14.6118 36.453 14.7588 36.375 14.9028 36.285H15.8748V40.929H17.1708V42H13.0128Z" fill="white" />
	<rect fill="#A7A9BC" height="14" rx="4" width="14" x="8" y="60" />
	<path d="M12.8238 70V69.244C13.3698 68.782 13.8468 68.365 14.2548 67.993C14.6688 67.615 14.9898 67.27 15.2178 66.958C15.4458 66.64 15.5598 66.346 15.5598 66.076C15.5598 65.794 15.4758 65.581 15.3078 65.437C15.1458 65.287 14.9178 65.212 14.6238 65.212C14.3958 65.212 14.1858 65.272 13.9938 65.392C13.8078 65.506 13.6338 65.641 13.4718 65.797L12.7608 65.086C13.0548 64.78 13.3578 64.552 13.6698 64.402C13.9878 64.252 14.3658 64.177 14.8038 64.177C15.1998 64.177 15.5478 64.252 15.8478 64.402C16.1538 64.552 16.3908 64.765 16.5588 65.041C16.7328 65.311 16.8198 65.629 16.8198 65.995C16.8198 66.319 16.7208 66.646 16.5228 66.976C16.3308 67.306 16.0728 67.639 15.7488 67.975C15.4308 68.305 15.0888 68.632 14.7228 68.956C14.8848 68.938 15.0618 68.923 15.2538 68.911C15.4458 68.893 15.6138 68.884 15.7578 68.884H17.1168V70H12.8238Z" fill="white" />
	<rect fill="#A7A9BC" height="14" rx="4" width="14" x="8" y="87" />
	<path d="M14.8128 97.108C14.4888 97.108 14.1918 97.072 13.9218 97C13.6578 96.934 13.4208 96.841 13.2108 96.721C13.0008 96.601 12.8238 96.46 12.6798 96.298L13.2918 95.461C13.4838 95.629 13.6998 95.767 13.9398 95.875C14.1798 95.983 14.4288 96.037 14.6868 96.037C14.8908 96.037 15.0738 96.013 15.2358 95.965C15.3978 95.911 15.5238 95.833 15.6138 95.731C15.7098 95.629 15.7578 95.506 15.7578 95.362C15.7578 95.194 15.7068 95.05 15.6048 94.93C15.5028 94.804 15.3258 94.708 15.0738 94.642C14.8278 94.576 14.4798 94.543 14.0298 94.543V93.607C14.4078 93.607 14.7078 93.574 14.9298 93.508C15.1518 93.442 15.3138 93.352 15.4158 93.238C15.5178 93.124 15.5688 92.992 15.5688 92.842C15.5688 92.638 15.4938 92.482 15.3438 92.374C15.1938 92.266 14.9868 92.212 14.7228 92.212C14.5008 92.212 14.2908 92.257 14.0928 92.347C13.9008 92.431 13.7058 92.554 13.5078 92.716L12.8418 91.906C13.1238 91.678 13.4268 91.501 13.7508 91.375C14.0748 91.243 14.4198 91.177 14.7858 91.177C15.1998 91.177 15.5658 91.24 15.8838 91.366C16.2018 91.486 16.4478 91.663 16.6218 91.897C16.8018 92.125 16.8918 92.407 16.8918 92.743C16.8918 93.037 16.7958 93.289 16.6038 93.499C16.4118 93.709 16.1448 93.88 15.8028 94.012V94.048C16.0428 94.114 16.2588 94.21 16.4508 94.336C16.6488 94.456 16.8018 94.609 16.9098 94.795C17.0238 94.981 17.0808 95.197 17.0808 95.443C17.0808 95.797 16.9758 96.1 16.7658 96.352C16.5558 96.598 16.2798 96.787 15.9378 96.919C15.5958 97.045 15.2208 97.108 14.8128 97.108Z" fill="white" />
	<defs>
		<filter color-interpolation-filters="sRGB" filterUnits="userSpaceOnUse" height="56" id="filter0_d_30_16494" width="64" x="9" y="0">
			<feFlood flood-opacity="0" result="BackgroundImageFix" />
			<feColorMatrix in="SourceAlpha" result="hardAlpha" type="matrix" values="0 0 0 0 0 0 0 0 0 0 0 0 0 0 0 0 0 0 127 0" />
			<feOffset dy="8" />
			<feGaussianBlur stdDeviation="8" />
			<feColorMatrix type="matrix" values="0 0 0 0 0.152941 0 0 0 0 0.156863 0 0 0 0 0.2 0 0 0 0.16 0" />
			<feBlend in2="BackgroundImageFix" mode="normal" result="effect1_dropShadow_30_16494" />
			<feBlend in="SourceGraphic" in2="effect1_dropShadow_30_16494" mode="normal" result="shape" />
		</filter>
	</defs>
</svg>